<?xml version="1.0" encoding="UTF-8" standalone="no"?>
<svg xmlns="http://www.w3.org/2000/svg" version="1.1" width="27" height="32">
<path id="calendar" style="fill:#3d3d3d;stroke:none" d="m 0,10.714879 0,18.984323 c 0,1.27104 0.83692,2.300799 1.8689901,2.300799 l 23.2620209,0 c 1.03238,0 1.86899,-1.029759 1.86899,-2.300799 l 0,-18.984323 -27.000001,0 z m 6.5940402,19.384963 -4.9331001,0 0,-5.015042 4.9331001,0 0,5.015042 z m 0,-6.281922 -4.9331001,0 0,-5.015361 4.9331001,0 0,5.015361 z m 0,-6.240641 -4.9331001,0 0,-5.01536 4.9331001,0 0,5.01536 z m 6.1791998,12.522563 -4.9334097,0 0,-5.015042 4.9330897,0 0,5.015042 z m 0,-6.281922 -4.9334097,0 0,-5.015361 4.9330897,0 0,5.015361 z m 0,-6.240641 -4.9334097,0 0,-5.01536 4.9330897,0 0,5.01536 z m 6.179201,12.522563 -4.933729,0 0,-5.015042 4.933729,0 0,5.015042 z m 0,-6.281922 -4.933729,0 0,-5.015361 4.933729,0 0,5.015361 z m 0,-6.240641 -4.933729,0 0,-5.01536 4.933729,0 0,5.01536 z m 6.17857,12.522563 -4.93247,0 0,-5.015042 4.93247,0 0,5.015042 z m 0,-6.281922 -4.93247,0 0,-5.015361 4.93247,0 0,5.015361 z m 0,-6.240641 -4.93247,0 0,-5.01536 4.93247,0 0,5.01536 z m 0,-13.463681 -4.59569,0 0,-2.9280001 c 0,-0.65439997 -0.42932,-1.1856000740741 -0.95999,-1.1856000740741 -0.53067,0 -0.95999,0.5312001040741 -0.95999,1.1856000740741 l 0,2.9280001 -10.4381007,0 0,-2.9280001 c 0,-0.65439997 -0.42964,-1.1856000740741 -0.9599901,-1.1856000740741 -0.53036,0 -0.95999,0.5312001040741 -0.95999,1.1856000740741 l 0,2.9280001 -4.3882701,0 C 0.83692,4.113598 0,5.1433583 0,6.4143984 l 0,3.3507205 26.999691,0 0,-3.3507205 c 0,-1.2710401 -0.8363,-2.3008004 -1.86868,-2.3008004 z M 7.2169302,8.4451189 c -0.97478,0 -1.7651201,-0.8041604 -1.7651201,-1.7948804 0,-0.6300801 0.3213601,-1.1830402 0.8054501,-1.5027202 l 0,0.8476801 c 0,0.6544001 0.42963,1.1852801 0.95999,1.1852801 0.5303501,0 0.9599901,-0.53088 0.9599901,-1.1852801 l 0,-0.8470401 c 0.48377,0.31968 0.80482,0.8723201 0.80482,1.5020802 0,0.99072 -0.79034,1.7948804 -1.7651301,1.7948804 z m 12.3584008,0 c -0.97541,0 -1.76544,-0.8041604 -1.76544,-1.7948804 0,-0.6300801 0.32136,-1.1830402 0.80576,-1.5027202 l 0,0.8476801 c 0,0.6544001 0.42932,1.1852801 0.96,1.1852801 0.53067,0 0.95999,-0.53088 0.95999,-1.1852801 l 0,-0.8470401 c 0.48377,0.31968 0.80513,0.8723201 0.80513,1.5020802 -3.1e-4,0.99072 -0.79065,1.7948804 -1.76544,1.7948804 z" />
<path id="arrow" style="fill:#3d3d3d;stroke:#ffffff" d="M 15.87378,13.860822 8.4346912,21.299911 15.87378,28.739 l 2.69153,-2.69153 -4.710177,-4.747559 4.710177,-4.747559 -2.69153,-2.69153 z" /></svg>

