<?xml version="1.0" encoding="UTF-8" standalone="no"?>
<svg xmlns="http://www.w3.org/2000/svg" version="1.1" width="27" height="32">
<path id="calendar" style="fill:#3d3d3d;stroke:none" d="m 0,10.71488 0,18.984321 c 0,1.27104 0.83692403,2.3008 1.868993,2.3008 l 23.262015,0 c 1.032384,0 1.868993,-1.02976 1.868993,-2.3008 l 0,-18.984321 -27.000001,0 z m 6.59404,19.384961 -4.933097,0 0,-5.01504 4.933097,0 0,5.01504 z m 0,-12.522561 -4.933097,0 0,-5.01536 4.933097,0 0,5.01536 z m 6.1792,12.522561 -4.933414,0 0,-5.01504 4.9331,0 0,5.01504 3.14e-4,0 z m -3.14e-4,-6.28192 0,0 z m 3.14e-4,-6.240641 -4.933414,0 0,-5.01536 4.9331,0 0,5.01536 3.14e-4,0 z m 6.179198,12.522561 -4.933727,0 0,-5.01504 4.933727,0 0,5.01504 z m 0,-12.522561 -4.933727,0 0,-5.01536 4.933727,0 0,5.01536 z m 6.17857,12.522561 -4.932469,0 0,-5.01504 4.932469,0 0,5.01504 z m 0,-12.522561 -4.932469,0 0,-5.01536 4.932469,0 0,5.01536 z m 0,-13.4636811 -4.595685,0 0,-2.9279999 C 20.535323,0.53119916 20.106002,-8.3740741e-7 19.575332,-8.3740741e-7 19.044661,-8.3740741e-7 18.61534,0.53119916 18.61534,1.185599 l 0,2.9279999 -10.4381,0 0,-2.9279999 C 8.17724,0.53119916 7.747604,-8.3740741e-7 7.217249,-8.3740741e-7 6.686893,-8.3740741e-7 6.257257,0.53119916 6.257257,1.185599 l 0,2.9279999 -4.388264,0 C 0.83692403,4.1135989 0,5.1433589 0,6.414399 l 0,3.3507196 26.999686,0 0,-3.3507196 c 0,-1.2710401 -0.836294,-2.3008001 -1.868678,-2.3008001 z M 7.216934,8.4451191 c -0.974785,0 -1.765126,-0.80416 -1.765126,-1.7948801 0,-0.63008 0.321362,-1.1830401 0.805449,-1.5027201 l 0,0.8476801 c 0,0.6544 0.429636,1.18528 0.959992,1.18528 0.530355,0 0.959991,-0.53088 0.959991,-1.18528 l 0,-0.8470401 c 0.483773,0.31968 0.804819,0.8723201 0.804819,1.5020801 0,0.9907201 -0.790341,1.7948801 -1.765125,1.7948801 z m 12.358398,0 c -0.975415,0 -1.765441,-0.80416 -1.765441,-1.7948801 0,-0.63008 0.321362,-1.1830401 0.805764,-1.5027201 l 0,0.8476801 c 0,0.6544 0.429321,1.18528 0.959991,1.18528 0.530671,0 0.959992,-0.53088 0.959992,-1.18528 l 0,-0.8470401 c 0.483773,0.31968 0.805134,0.8723201 0.805134,1.5020801 -3.14e-4,0.9907201 -0.790655,1.7948801 -1.76544,1.7948801 z" /></svg>
